<svg width="45" height="48" viewBox="0 0 45 48" fill="none" xmlns="http://www.w3.org/2000/svg">
<path fill-rule="evenodd" clip-rule="evenodd" d="M18.0131 9.45928C17.8846 8.69642 17.7877 7.94222 17.7251 7.18794C17.6309 6.05651 17.6892 4.91643 17.6557 3.785C17.6412 3.305 17.5837 2.05359 17.6069 1.87359C17.8169 0.305017 19.0829 0.0649881 19.4531 0.0221309C19.6323 -0.00358334 21.4717 -0.209206 21.8686 1.83079C22.3554 4.32508 22.5114 6.83647 22.3391 9.29647C22.7411 11.3879 23.4286 13.4707 24.3363 15.3564C27.9483 22.8564 34.8311 23.585 42.2883 23.5164C43.4351 23.4993 44.3875 24.3993 44.4475 25.5393C44.5075 26.6879 43.6537 27.6821 42.512 27.785C38.3437 28.1879 30.9483 31.5308 28.3914 35.0108C27.8566 35.7393 27.5454 37.4965 27.134 39.2194C26.5597 41.6108 25.8766 43.9765 25.1112 44.9708C24.9963 45.125 23.6 46.7022 23.1834 46.9336C22.1823 47.4822 21.3809 47.165 20.9257 46.8736C20.4706 46.5822 19.9554 46.0079 19.7497 45.0564C19.5346 44.0622 19.7163 42.0221 19.6829 41.585C19.5611 39.9993 19.244 36.8879 18.5969 34.2136C18.248 32.7736 17.876 31.445 17.2606 30.785C14.9823 28.3421 11.3394 28.7022 8.27173 29.105C7.91944 29.1479 7.56716 29.1993 7.21573 29.2422C5.96687 29.6108 4.64084 29.885 3.23941 30.0479C1.12313 30.2964 0.775149 28.3507 0.756292 28.2222C0.716863 27.9393 0.570276 26.4822 2.16542 25.8993C2.33942 25.8393 3.62343 25.5564 4.118 25.445C4.80715 25.2907 5.50399 25.1708 6.20342 25.0593C13.4283 22.8136 17.3523 16.505 18.0131 9.45928ZM20.4929 17.2508C23.2203 22.8908 27.3594 25.6165 32.2657 26.8507H32.2649C29.2014 28.4536 26.4148 30.4594 24.938 32.4736C24.3774 33.2365 23.8631 34.7707 23.3994 36.4936C23.1483 34.8907 22.8089 33.185 22.3606 31.7278C21.8506 30.065 21.164 28.6851 20.3977 27.8622C18.9183 26.2765 17.0617 25.3936 15.0654 24.9565C17.4551 22.8393 19.2672 20.1994 20.4929 17.2508Z" fill="url(#paint0_linear_227_5)"/>
<defs>
<linearGradient id="paint0_linear_227_5" x1="22.5924" y1="0.0045166" x2="22.5924" y2="47.2334" gradientUnits="userSpaceOnUse">
<stop stop-color="#F6F0B6"/>
<stop offset="1" stop-color="#FFE9C5" stop-opacity="0.24"/>
</linearGradient>
</defs>
</svg>
