<svg width="18" height="18" viewBox="0 0 18 18" fill="none" xmlns="http://www.w3.org/2000/svg">
<path d="M7.51001 15.02C9.17628 15.0197 10.7945 14.4619 12.1071 13.4354L16.2338 17.5622L17.5612 16.2348L13.4345 12.108C14.4615 10.7953 15.0196 9.17671 15.02 7.51001C15.02 3.36918 11.6508 0 7.51001 0C3.36918 0 0 3.36918 0 7.51001C0 11.6508 3.36918 15.02 7.51001 15.02ZM7.51001 1.8775C10.6163 1.8775 13.1425 4.40368 13.1425 7.51001C13.1425 10.6163 10.6163 13.1425 7.51001 13.1425C4.40368 13.1425 1.8775 10.6163 1.8775 7.51001C1.8775 4.40368 4.40368 1.8775 7.51001 1.8775Z" fill="white"/>
</svg>
