<svg width="20" height="20" viewBox="0 0 20 20" fill="none" xmlns="http://www.w3.org/2000/svg">
<path fill-rule="evenodd" clip-rule="evenodd" d="M5.50009 4.00003C5.50009 9.79903 10.2011 14.5 16.0001 14.5C16.4261 14.5 16.8471 14.474 17.2601 14.425C16.5896 15.5224 15.6789 16.4533 14.5965 17.1476C13.5142 17.842 12.2884 18.2817 11.0114 18.4337C9.7345 18.5857 8.43972 18.4459 7.22462 18.025C6.00951 17.6041 4.90574 16.913 3.99644 16.0037C3.08714 15.0944 2.39601 13.9906 1.97509 12.7755C1.55417 11.5604 1.41444 10.2656 1.56642 8.98868C1.7184 7.71175 2.15814 6.48594 2.8525 5.40358C3.54687 4.32121 4.47776 3.4105 5.57509 2.74003C5.52509 3.15303 5.50009 3.57303 5.50009 3.99903V4.00003ZM7.23209 1.96003C7.07822 2.62911 7.00072 3.31348 7.00109 4.00003C7.00075 5.35553 7.3066 6.69359 7.89579 7.91433C8.48499 9.13508 9.34232 10.207 10.4038 11.05C11.4652 11.893 12.7034 12.4854 14.0259 12.7829C15.3483 13.0803 16.7209 13.0753 18.0411 12.768L18.0451 12.766C18.3081 12.7046 18.5684 12.6319 18.8251 12.548C19.2181 12.418 19.6251 12.758 19.4951 13.15C19.3986 13.4399 19.2888 13.7252 19.1661 14.005L19.1621 14.015C18.3815 15.7949 17.0993 17.3088 15.4722 18.3717C13.8451 19.4346 11.9436 20.0004 10.0001 20C7.70469 19.9986 5.47964 19.2077 3.69832 17.76C1.917 16.3123 0.687813 14.296 0.217035 12.0494C-0.253742 9.8028 0.0625362 7.46264 1.1128 5.42161C2.16306 3.38058 3.88339 1.7629 5.98509 0.840029L5.99509 0.835029C6.27479 0.712357 6.56011 0.602903 6.85009 0.507029C7.24209 0.377029 7.58209 0.783029 7.45209 1.17703C7.3677 1.43327 7.29496 1.6932 7.23409 1.95603L7.23209 1.96103V1.96003Z" fill="#5C33CF"/>
</svg>
