<svg width="20" height="20" viewBox="0 0 20 20" fill="none" xmlns="http://www.w3.org/2000/svg">
<path d="M10 0.25C8.07164 0.25 6.18657 0.821828 4.58319 1.89317C2.97982 2.96451 1.73013 4.48726 0.992179 6.26884C0.254225 8.05042 0.061142 10.0108 0.437348 11.9021C0.813554 13.7934 1.74215 15.5307 3.10571 16.8943C4.46928 18.2579 6.20656 19.1865 8.09787 19.5627C9.98919 19.9389 11.9496 19.7458 13.7312 19.0078C15.5127 18.2699 17.0355 17.0202 18.1068 15.4168C19.1782 13.8134 19.75 11.9284 19.75 10C19.745 7.41566 18.7162 4.93859 16.8888 3.11118C15.0614 1.28378 12.5843 0.254956 10 0.25ZM10 18.25C8.36831 18.25 6.77326 17.7661 5.41655 16.8596C4.05984 15.9531 3.00242 14.6646 2.378 13.1571C1.75358 11.6496 1.5902 9.99085 1.90853 8.3905C2.22685 6.79016 3.01259 5.32015 4.16637 4.16637C5.32016 3.01259 6.79017 2.22685 8.39051 1.90852C9.99085 1.59019 11.6497 1.75357 13.1571 2.37799C14.6646 3.00242 15.9531 4.05984 16.8596 5.41655C17.7661 6.77325 18.25 8.3683 18.25 10C18.2475 12.1873 17.3775 14.2843 15.8309 15.8309C14.2843 17.3775 12.1873 18.2475 10 18.25ZM5.5 8.125C5.5 7.9025 5.56598 7.68499 5.6896 7.49998C5.81322 7.31498 5.98892 7.17078 6.19449 7.08564C6.40005 7.00049 6.62625 6.97821 6.84448 7.02162C7.06271 7.06502 7.26317 7.17217 7.4205 7.3295C7.57783 7.48684 7.68498 7.68729 7.72839 7.90552C7.7718 8.12375 7.74952 8.34995 7.66437 8.55552C7.57922 8.76109 7.43503 8.93679 7.25002 9.0604C7.06502 9.18402 6.84751 9.25 6.625 9.25C6.32664 9.25 6.04049 9.13147 5.82951 8.9205C5.61853 8.70952 5.5 8.42337 5.5 8.125ZM12.25 8.125C12.25 7.9025 12.316 7.68499 12.4396 7.49998C12.5632 7.31498 12.7389 7.17078 12.9445 7.08564C13.1501 7.00049 13.3763 6.97821 13.5945 7.02162C13.8127 7.06502 14.0132 7.17217 14.1705 7.3295C14.3278 7.48684 14.435 7.68729 14.4784 7.90552C14.5218 8.12375 14.4995 8.34995 14.4144 8.55552C14.3292 8.76109 14.185 8.93679 14 9.0604C13.815 9.18402 13.5975 9.25 13.375 9.25C13.0766 9.25 12.7905 9.13147 12.5795 8.9205C12.3685 8.70952 12.25 8.42337 12.25 8.125ZM14.5469 12.625C14.0861 13.4232 13.4234 14.0861 12.6252 14.5469C11.8271 15.0078 10.9217 15.2504 10 15.2504C9.07835 15.2504 8.17295 15.0078 7.37479 14.5469C6.57664 14.0861 5.91388 13.4232 5.45313 12.625C5.39443 12.5398 5.35398 12.4435 5.33432 12.3419C5.31466 12.2404 5.31621 12.1359 5.33888 12.035C5.36154 11.9341 5.40484 11.8389 5.46604 11.7556C5.52723 11.6722 5.60502 11.6024 5.69449 11.5505C5.78397 11.4986 5.88321 11.4658 5.98597 11.4541C6.08874 11.4425 6.1928 11.4522 6.29164 11.4826C6.39047 11.5131 6.48193 11.5637 6.56028 11.6312C6.63862 11.6988 6.70215 11.7817 6.74688 11.875C7.07718 12.4453 7.55159 12.9187 8.12256 13.2478C8.69352 13.577 9.34097 13.7502 10 13.7502C10.659 13.7502 11.3065 13.577 11.8775 13.2478C12.4484 12.9187 12.9228 12.4453 13.2531 11.875C13.3603 11.7196 13.5221 11.6103 13.7063 11.5689C13.8905 11.5275 14.0835 11.5571 14.2468 11.6518C14.4101 11.7465 14.5317 11.8993 14.5873 12.0797C14.643 12.2601 14.6285 12.4548 14.5469 12.625Z" fill="#8497AF" fill-opacity="0.65"/>
</svg>
