<svg width="22" height="22" viewBox="0 0 22 22" fill="none" xmlns="http://www.w3.org/2000/svg">
<path d="M9.25 3.25C9.44891 3.25 9.63968 3.32902 9.78033 3.46967C9.92098 3.61032 10 3.80109 10 4V12H18C18.1812 12 18.3563 12.0656 18.4929 12.1848C18.6295 12.3039 18.7184 12.4684 18.743 12.648L18.75 12.75C18.75 17.72 14.72 21.25 9.75 21.25C7.36305 21.25 5.07387 20.3018 3.38604 18.614C1.69821 16.9261 0.75 14.6369 0.75 12.25C0.75 7.28 4.28 3.25 9.25 3.25ZM8.5 4.787L8.291 4.811C4.601 5.281 2.25 8.433 2.25 12.25C2.25 14.2391 3.04018 16.1468 4.4467 17.5533C5.85322 18.9598 7.76088 19.75 9.75 19.75C13.567 19.75 16.718 17.398 17.19 13.709L17.212 13.5H9.25C9.06876 13.5 8.89366 13.4344 8.75707 13.3152C8.62048 13.1961 8.53165 13.0316 8.507 12.852L8.5 12.75V4.787ZM12.25 0.75C14.6369 0.75 16.9261 1.69821 18.614 3.38604C20.3018 5.07387 21.25 7.36305 21.25 9.75C21.25 9.94891 21.171 10.1397 21.0303 10.2803C20.8897 10.421 20.6989 10.5 20.5 10.5H12.25C12.0511 10.5 11.8603 10.421 11.7197 10.2803C11.579 10.1397 11.5 9.94891 11.5 9.75V1.5C11.5 1.30109 11.579 1.11032 11.7197 0.96967C11.8603 0.829018 12.0511 0.75 12.25 0.75ZM13 2.287V9H19.712L19.689 8.791C19.4764 7.14679 18.7254 5.61925 17.5531 4.44694C16.3807 3.27463 14.8532 2.52356 13.209 2.311L13 2.287Z" fill="#734DDE"/>
</svg>
