<svg width="18" height="18" viewBox="0 0 18 18" fill="none" xmlns="http://www.w3.org/2000/svg">
<path d="M16.8501 10.0975C16.2303 10.262 15.5918 10.3453 14.9505 10.3453C12.998 10.3453 11.1643 9.58646 9.78702 8.20965C8.88257 7.30032 8.23235 6.16991 7.90115 4.93109C7.56995 3.69227 7.56934 2.38831 7.89939 1.14918C7.94061 0.994249 7.94035 0.831209 7.89863 0.676412C7.85692 0.521616 7.77521 0.380506 7.66172 0.267239C7.54823 0.153972 7.40693 0.0725297 7.25201 0.0310822C7.09709 -0.0103653 6.93399 -0.0103607 6.77907 0.0310955C5.22723 0.444488 3.81143 1.25854 2.67368 2.3916C-0.891225 5.9552 -0.891225 11.7559 2.67368 15.3213C3.52103 16.1731 4.52896 16.8484 5.63913 17.3082C6.7493 17.768 7.93967 18.0031 9.14135 18C10.3427 18.0033 11.5328 17.7684 12.6427 17.3088C13.7526 16.8491 14.7602 16.1739 15.6072 15.3222C16.7415 14.1847 17.5562 12.7686 17.9695 11.2165C18.0105 11.0616 18.0102 10.8987 17.9685 10.744C17.9268 10.5893 17.8452 10.4483 17.7319 10.335C17.6185 10.2217 17.4775 10.1402 17.3227 10.0985C17.168 10.0568 17.005 10.0565 16.8501 10.0975ZM14.3149 14.0295C13.6372 14.7107 12.8311 15.2508 11.9432 15.6184C11.0553 15.9861 10.1033 16.1741 9.14226 16.1715C8.18088 16.1739 7.22857 15.9858 6.34039 15.6179C5.45221 15.2501 4.64579 14.7099 3.96776 14.0286C1.1162 11.1772 1.1162 6.53664 3.96776 3.68521C4.51878 3.13501 5.15493 2.67721 5.85172 2.32943C5.74973 3.64504 5.93307 4.96715 6.38923 6.20541C6.84538 7.44367 7.56358 8.56889 8.49476 9.50418C9.42833 10.4379 10.5536 11.1579 11.7929 11.6142C13.0321 12.0705 14.3557 12.2524 15.6721 12.1472C15.3223 12.8425 14.8642 13.4779 14.3149 14.0295Z" fill="white"/>
</svg>
