<svg width="20" height="18" viewBox="0 0 20 18" fill="none" xmlns="http://www.w3.org/2000/svg">
<path d="M5.0701 1.98159e-07C3.6541 1.98159e-07 2.4231 0.97 2.0921 2.346L0.100097 10.619C-0.0255901 11.141 -0.0312287 11.6847 0.0836052 12.2092C0.198439 12.7337 0.430754 13.2254 0.763063 13.6471C1.09537 14.0689 1.51902 14.4097 2.00211 14.6441C2.48521 14.8784 3.01517 15.0001 3.5521 15H16.4441C16.9808 14.9998 17.5104 14.8778 17.9931 14.6434C18.4759 14.409 18.8992 14.0682 19.2313 13.6466C19.5633 13.2251 19.7955 12.7337 19.9103 12.2094C20.0251 11.6852 20.0196 11.1418 19.8941 10.62L17.9041 2.346C17.7431 1.67726 17.3617 1.08218 16.8213 0.656611C16.2809 0.231041 15.6129 -0.000247133 14.9251 1.98159e-07H5.0691H5.0701ZM3.5501 2.697C3.63228 2.3558 3.8269 2.05219 4.10263 1.83505C4.37836 1.61792 4.71914 1.4999 5.0701 1.5H14.9261C15.6481 1.5 16.2761 1.995 16.4451 2.697L18.4371 10.97C18.5097 11.2715 18.513 11.5855 18.4466 11.8885C18.3803 12.1914 18.2461 12.4754 18.0541 12.719C17.8622 12.9625 17.6174 13.1594 17.3384 13.2946C17.0593 13.4299 16.7532 13.5001 16.4431 13.5H3.5531C3.24306 13.5 2.93706 13.4297 2.65813 13.2943C2.3792 13.159 2.1346 12.9621 1.94275 12.7186C1.7509 12.475 1.61678 12.1911 1.5505 11.8882C1.48422 11.5854 1.4875 11.2714 1.5601 10.97L3.5501 2.697ZM4.7481 16C4.54919 16 4.35842 16.079 4.21777 16.2197C4.07712 16.3603 3.9981 16.5511 3.9981 16.75C3.9981 16.9489 4.07712 17.1397 4.21777 17.2803C4.35842 17.421 4.54919 17.5 4.7481 17.5H15.2481C15.447 17.5 15.6378 17.421 15.7784 17.2803C15.9191 17.1397 15.9981 16.9489 15.9981 16.75C15.9981 16.5511 15.9191 16.3603 15.7784 16.2197C15.6378 16.079 15.447 16 15.2481 16H4.7481Z" fill="#734DDE"/>
</svg>
